<?xml version="1.0" standalone="no"?>
<!DOCTYPE svg PUBLIC "-//W3C//DTD SVG 20010904//EN"
 "http://www.w3.org/TR/2001/REC-SVG-20010904/DTD/svg10.dtd">
<svg version="1.0" xmlns="http://www.w3.org/2000/svg"
 width="500.000000pt" height="500.000000pt" viewBox="0 0 500.000000 500.000000"
 preserveAspectRatio="xMidYMid meet">
<metadata>
Created by potrace 1.14, written by Peter Selinger 2001-2017
</metadata>
<g transform="translate(0.000000,500.000000) scale(0.100000,-0.100000)"
fill="#000000" stroke="none">
<path d="M2230 4984 c-105 -12 -129 -16 -230 -35 -82 -15 -89 -17 -165 -39
-38 -12 -77 -23 -85 -25 -52 -11 -236 -87 -360 -148 -150 -74 -330 -188 -460
-292 -69 -55 -251 -231 -326 -315 -198 -223 -411 -609 -494 -895 -26 -93 -59
-223 -65 -260 -4 -22 -9 -52 -11 -66 -22 -124 -31 -269 -29 -444 3 -201 13
-300 49 -480 51 -253 187 -592 322 -805 198 -311 469 -585 774 -782 327 -212
709 -345 1110 -387 85 -9 463 -7 510 2 14 3 75 13 135 22 61 9 128 21 150 27
22 5 50 12 62 14 40 8 256 80 338 114 143 59 407 204 485 267 8 6 39 30 68 51
414 307 747 790 891 1292 76 267 97 426 94 735 -1 228 -20 384 -65 554 -11 42
-25 96 -30 121 -6 25 -14 50 -18 55 -4 6 -11 24 -15 42 -10 49 -100 256 -160
370 -44 83 -149 251 -187 298 -4 5 -38 48 -75 95 -148 190 -401 412 -628 555
-142 89 -478 245 -528 245 -7 0 -17 4 -22 9 -15 13 -235 67 -350 85 -222 36
-485 44 -685 20z"/>
</g>
</svg>
